<?xml version="1.0" encoding="UTF-8" standalone="no"?>
<!-- Generator: Gravit.io -->
<svg xmlns="http://www.w3.org/2000/svg" xmlns:xlink="http://www.w3.org/1999/xlink" style="isolation:isolate" viewBox="379 135.003 512.001 480.997" width="512.001pt" height="480.997pt"><g><path d=" M 875.028 496.001 C 856.735 523.938 818.353 529.321 793.052 507.77 C 791.177 506.173 788.419 506.173 786.548 507.77 C 765.834 525.415 735.588 525.391 714.9 507.77 C 713.025 506.173 710.268 506.173 708.397 507.77 C 687.584 525.501 657.373 525.149 637.221 508.251 C 635.358 506.692 632.639 506.692 630.776 508.251 C 610.698 525.083 580.487 525.563 559.601 507.77 C 557.726 506.176 554.968 506.173 553.097 507.77 C 532.378 525.415 502.136 525.391 481.449 507.77 C 479.574 506.176 476.816 506.173 474.945 507.77 C 449.738 529.239 411.433 524.016 393.059 496.145 C 385.695 497.114 380.004 503.387 380.004 511.001 L 380.004 541 C 380.004 582.356 413.715 616 455.152 616 L 815.853 616 C 857.29 616 891.001 582.356 891.001 541 L 891.001 511.001 C 890.997 503.45 885.317 496.001 875.028 496.001 Z " fill="rgb(255,176,48)"/><path d=" M 408.894 420.044 C 417.578 414.337 427.965 411.001 439.117 411.001 L 828.876 411.001 C 840.724 411.001 851.704 414.767 860.7 421.142 C 897.559 393.693 901.341 340.341 868.985 308.021 C 865.036 309.931 860.607 311.002 855.931 311.002 C 379.629 311.002 410.949 312.342 402.012 308.021 C 370.074 339.923 373.348 392.247 408.894 420.044 L 408.894 420.044 Z " fill="rgb(128,70,4)"/><path d=" M 789.798 511.575 C 767.224 530.805 734.221 530.801 711.646 511.575 C 689.115 530.762 656.194 530.688 633.995 512.079 C 611.796 530.692 578.87 530.762 556.343 511.575 C 533.769 530.805 500.765 530.801 478.191 511.575 C 439.109 544.864 379 516.969 379 466.001 C 379 432.919 405.969 406.001 439.117 406.001 L 828.876 406.001 C 862.025 406.001 888.993 432.919 888.993 466.001 C 888.993 517.051 828.802 544.793 789.798 511.575 L 789.798 511.575 Z " fill="rgb(18,186,0)"/><path d=" M 550.941 414.185 C 550.941 395.522 589.982 402.55 640.206 402.55 C 690.431 402.55 732.941 395.522 732.941 414.185 C 732.941 432.848 692.166 448 641.941 448 C 591.717 448 550.941 432.848 550.941 414.185 Z " fill="rgb(255,0,0)"/><path d=" M 447 414.185 C 447 395.522 486.041 402.55 536.265 402.55 C 586.489 402.55 629 395.522 629 414.185 C 629 432.848 588.224 448 538 448 C 487.776 448 447 432.848 447 414.185 Z " fill="rgb(255,0,0)"/><path d=" M 658.559 412.888 C 658.559 394.225 699.335 401.253 749.559 401.253 C 799.783 401.253 840.559 394.225 840.559 412.888 C 840.559 431.551 799.783 446.703 749.559 446.703 C 699.335 446.703 658.559 431.551 658.559 412.888 Z " fill="rgb(255,0,0)"/><path d=" M 594.245 311.002 C 596.085 313.056 589.819 308.639 687.279 373.486 C 692.326 376.841 698.904 376.841 703.951 373.486 C 801.357 308.674 795.134 313.072 796.99 311.002 L 594.245 311.002 Z " fill="rgb(255,255,0)"/><path d=" M 855.931 316.002 L 415.07 316.002 C 395.734 316.002 380.004 300.303 380.004 281.002 L 380.004 270.002 C 380.004 195.565 440.679 135.003 515.265 135.003 L 755.732 135.003 C 830.318 135.003 890.997 195.565 890.997 270.002 L 890.997 281.002 C 890.997 300.303 875.267 316.002 855.931 316.002 L 855.931 316.002 Z " fill="rgb(255,176,48)"/><path d=" M 497 184.503 C 497 177.88 503.274 154 511 154 C 518.727 154 525 177.88 525 184.503 C 525 191.125 518.727 196.501 511 196.501 C 503.274 196.501 497 191.125 497 184.503 Z " fill="rgb(172,153,84)"/><path d=" M 469 269.506 C 469 262.883 475.274 239.003 483 239.003 C 490.727 239.003 497 262.883 497 269.506 C 497 276.128 490.727 281.504 483 281.504 C 475.274 281.504 469 276.128 469 269.506 Z " fill="rgb(172,153,84)"/><path d=" M 600 269.506 C 600 262.883 606.274 239.003 614 239.003 C 621.727 239.003 628 262.883 628 269.506 C 628 276.128 621.727 281.504 614 281.504 C 606.274 281.504 600 276.128 600 269.506 Z " fill="rgb(172,153,84)"/><path d=" M 667 227.004 C 667 220.382 673.273 196.501 681 196.501 C 688.727 196.501 695 220.382 695 227.004 C 695 233.626 688.727 239.003 681 239.003 C 673.273 239.003 667 233.626 667 227.004 Z " fill="rgb(172,153,84)"/><path d=" M 550 227.004 C 550 220.382 556.273 196.501 564 196.501 C 571.727 196.501 578 220.382 578 227.004 C 578 233.626 571.727 239.003 564 239.003 C 556.273 239.003 550 233.626 550 227.004 Z " fill="rgb(172,153,84)"/><path d=" M 784 227.004 C 784 220.382 790.273 196.501 798 196.501 C 805.727 196.501 812 220.382 812 227.004 C 812 233.626 805.727 239.003 798 239.003 C 790.273 239.003 784 233.626 784 227.004 Z " fill="rgb(172,153,84)"/><path d=" M 621 184.503 C 621 177.88 627.274 154 635 154 C 642.727 154 649 177.88 649 184.503 C 649 191.125 642.727 196.501 635 196.501 C 627.274 196.501 621 191.125 621 184.503 Z " fill="rgb(172,153,84)"/><path d=" M 731 269.506 C 731 262.883 737.274 239.003 745 239.003 C 752.727 239.003 759 262.883 759 269.506 C 759 276.128 752.727 281.504 745 281.504 C 737.274 281.504 731 276.128 731 269.506 Z " fill="rgb(172,153,84)"/><path d=" M 745 184.503 C 745 177.88 751.274 154 759 154 C 766.727 154 773 177.88 773 184.503 C 773 191.125 766.727 196.501 759 196.501 C 751.274 196.501 745 191.125 745 184.503 Z " fill="rgb(172,153,84)"/></g></svg>